<mxfile host="app.diagrams.net" modified="2022-08-18T07:22:01.079Z" agent="5.0 (Windows NT 10.0; Win64; x64) AppleWebKit/537.36 (KHTML, like Gecko) Chrome/103.0.0.0 Safari/537.36" etag="z09y4ROIbF2u0zaB4xqU" version="20.2.4" type="github">
  <diagram id="qqeqPYrbuE9Tu168sIRq" name="Page-1">
    <mxGraphModel dx="1422" dy="762" grid="1" gridSize="10" guides="1" tooltips="1" connect="1" arrows="1" fold="1" page="1" pageScale="1" pageWidth="827" pageHeight="1169" math="0" shadow="0">
      <root>
        <mxCell id="0" />
        <mxCell id="1" parent="0" />
        <mxCell id="kHqTodANnrio1zZ4OTn2-36" style="edgeStyle=orthogonalEdgeStyle;rounded=0;orthogonalLoop=1;jettySize=auto;html=1;entryX=0;entryY=0.5;entryDx=0;entryDy=0;fontFamily=Helvetica;fontColor=#000000;" parent="1" source="kHqTodANnrio1zZ4OTn2-1" target="kHqTodANnrio1zZ4OTn2-3" edge="1">
          <mxGeometry relative="1" as="geometry" />
        </mxCell>
        <mxCell id="kHqTodANnrio1zZ4OTn2-1" value="&lt;div style=&quot;background-color: rgb(255, 255, 255); color: rgb(8, 8, 8); font-size: 12.8pt;&quot;&gt;&lt;span style=&quot;color:#000000;&quot;&gt;PayContextStrategy&lt;/span&gt;&lt;/div&gt;" style="rounded=0;whiteSpace=wrap;html=1;fontFamily=Helvetica;fontColor=#000000;" parent="1" vertex="1">
          <mxGeometry x="370" y="425" width="185" height="60" as="geometry" />
        </mxCell>
        <mxCell id="kHqTodANnrio1zZ4OTn2-37" value="&lt;span style=&quot;color: rgba(0, 0, 0, 0); font-family: monospace; font-size: 0px; text-align: start;&quot;&gt;%3CmxGraphModel%3E%3Croot%3E%3CmxCell%20id%3D%220%22%2F%3E%3CmxCell%20id%3D%221%22%20parent%3D%220%22%2F%3E%3CmxCell%20id%3D%222%22%20value%3D%22%E9%9B%B6%E5%94%AE%E4%BD%99%E9%A2%9D%E6%94%AF%E4%BB%98%22%20style%3D%22text%3Bhtml%3D1%3Balign%3Dcenter%3BverticalAlign%3Dmiddle%3Bresizable%3D0%3Bpoints%3D%5B%5D%3Bautosize%3D1%3BstrokeColor%3Dnone%3BfillColor%3Dnone%3BfontSize%3D16%3BfontFamily%3DHelvetica%3BfontColor%3D%23000000%3B%22%20vertex%3D%221%22%20parent%3D%221%22%3E%3CmxGeometry%20x%3D%22860%22%20y%3D%22720%22%20width%3D%22120%22%20height%3D%2230%22%20as%3D%22geometry%22%2F%3E%3C%2FmxCell%3E%3C%2Froot%3E%3C%2FmxGraphModel%3E&lt;/span&gt;" style="rounded=1;whiteSpace=wrap;html=1;fontFamily=Helvetica;fontColor=#000000;" parent="1" vertex="1">
          <mxGeometry x="390" y="550" width="890" height="310" as="geometry" />
        </mxCell>
        <mxCell id="kHqTodANnrio1zZ4OTn2-7" value="&lt;div style=&quot;background-color: rgb(255, 255, 255); font-size: 12.8pt;&quot;&gt;&lt;span style=&quot;&quot;&gt;AliPayStrategy&lt;/span&gt;&lt;/div&gt;" style="rounded=0;whiteSpace=wrap;html=1;fontFamily=Helvetica;fontColor=#000000;" parent="1" vertex="1">
          <mxGeometry x="420" y="670" width="150" height="50" as="geometry" />
        </mxCell>
        <mxCell id="kHqTodANnrio1zZ4OTn2-3" value="&lt;div style=&quot;background-color: rgb(255, 255, 255); color: rgb(8, 8, 8); font-size: 12.8pt;&quot;&gt;&lt;span style=&quot;color:#000000;&quot;&gt;IPayStrategy&lt;/span&gt;&lt;/div&gt;" style="rounded=0;whiteSpace=wrap;html=1;fontFamily=Helvetica;fontColor=#000000;" parent="1" vertex="1">
          <mxGeometry x="787.5" y="430" width="122.5" height="50" as="geometry" />
        </mxCell>
        <mxCell id="kHqTodANnrio1zZ4OTn2-9" value="&lt;div style=&quot;background-color: rgb(255, 255, 255); font-size: 12.8pt;&quot;&gt;&lt;span style=&quot;&quot;&gt;BalancePay&lt;/span&gt;Strategy&lt;/div&gt;" style="rounded=0;whiteSpace=wrap;html=1;fontFamily=Helvetica;fontColor=#000000;" parent="1" vertex="1">
          <mxGeometry x="830" y="670" width="180" height="50" as="geometry" />
        </mxCell>
        <mxCell id="kHqTodANnrio1zZ4OTn2-33" value="" style="endArrow=classic;html=1;rounded=0;startArrow=none;exitX=0.5;exitY=0;exitDx=0;exitDy=0;entryX=0.25;entryY=1;entryDx=0;entryDy=0;fontFamily=Helvetica;fontColor=#000000;" parent="1" target="kHqTodANnrio1zZ4OTn2-3" edge="1">
          <mxGeometry width="50" height="50" relative="1" as="geometry">
            <mxPoint x="500" y="670" as="sourcePoint" />
            <mxPoint x="90" y="570" as="targetPoint" />
          </mxGeometry>
        </mxCell>
        <mxCell id="kHqTodANnrio1zZ4OTn2-34" value="&lt;div style=&quot;background-color: rgb(255, 255, 255); font-size: 12.8pt;&quot;&gt;&lt;span style=&quot;&quot;&gt;WechatPay&lt;/span&gt;Strategy&lt;/div&gt;" style="rounded=0;whiteSpace=wrap;html=1;fontFamily=Helvetica;fontColor=#000000;" parent="1" vertex="1">
          <mxGeometry x="617.5" y="670" width="170" height="50" as="geometry" />
        </mxCell>
        <mxCell id="kHqTodANnrio1zZ4OTn2-35" value="" style="endArrow=classic;html=1;rounded=0;startArrow=none;exitX=0.5;exitY=0;exitDx=0;exitDy=0;fontFamily=Helvetica;fontColor=#000000;" parent="1" edge="1">
          <mxGeometry width="50" height="50" relative="1" as="geometry">
            <mxPoint x="710" y="670" as="sourcePoint" />
            <mxPoint x="840" y="480" as="targetPoint" />
          </mxGeometry>
        </mxCell>
        <mxCell id="kHqTodANnrio1zZ4OTn2-39" value="&lt;div style=&quot;background-color: rgb(255, 255, 255); font-size: 12.8pt;&quot;&gt;&lt;span style=&quot;font-size: 17.0667px;&quot;&gt;XxPay&lt;/span&gt;&lt;span style=&quot;font-size: 17.0667px;&quot;&gt;Strategy&lt;/span&gt;&lt;br&gt;&lt;/div&gt;" style="rounded=0;whiteSpace=wrap;html=1;fontFamily=Helvetica;fontColor=#000000;" parent="1" vertex="1">
          <mxGeometry x="1050" y="670" width="180" height="50" as="geometry" />
        </mxCell>
        <mxCell id="kHqTodANnrio1zZ4OTn2-41" value="" style="endArrow=classic;html=1;rounded=0;startArrow=none;entryX=0.833;entryY=1;entryDx=0;entryDy=0;exitX=0.5;exitY=0;exitDx=0;exitDy=0;entryPerimeter=0;fontFamily=Helvetica;fontColor=#000000;" parent="1" target="kHqTodANnrio1zZ4OTn2-3" edge="1">
          <mxGeometry width="50" height="50" relative="1" as="geometry">
            <mxPoint x="1147" y="670" as="sourcePoint" />
            <mxPoint x="1077" y="480" as="targetPoint" />
          </mxGeometry>
        </mxCell>
        <mxCell id="kHqTodANnrio1zZ4OTn2-43" value="" style="endArrow=classic;html=1;rounded=0;startArrow=none;entryX=0.596;entryY=1.017;entryDx=0;entryDy=0;exitX=0.5;exitY=0;exitDx=0;exitDy=0;entryPerimeter=0;fontFamily=Helvetica;fontColor=#000000;" parent="1" target="kHqTodANnrio1zZ4OTn2-3" edge="1">
          <mxGeometry width="50" height="50" relative="1" as="geometry">
            <mxPoint x="929.54" y="670" as="sourcePoint" />
            <mxPoint x="670" y="480" as="targetPoint" />
          </mxGeometry>
        </mxCell>
        <mxCell id="kHqTodANnrio1zZ4OTn2-44" value="&lt;div style=&quot;background-color: rgb(255, 255, 255); color: rgb(8, 8, 8); font-size: 12.8pt;&quot;&gt;&lt;div style=&quot;font-size: 12.8pt;&quot;&gt;&lt;span style=&quot;color:#000000;&quot;&gt;ApplicationContextAware&lt;/span&gt;&lt;/div&gt;&lt;/div&gt;" style="rounded=0;whiteSpace=wrap;html=1;fontFamily=Helvetica;fontColor=#000000;" parent="1" vertex="1">
          <mxGeometry x="350" y="250" width="220" height="60" as="geometry" />
        </mxCell>
        <mxCell id="kHqTodANnrio1zZ4OTn2-47" value="" style="endArrow=classic;html=1;rounded=0;fontFamily=Helvetica;fontColor=#000000;exitX=0.5;exitY=0;exitDx=0;exitDy=0;" parent="1" source="kHqTodANnrio1zZ4OTn2-1" target="kHqTodANnrio1zZ4OTn2-44" edge="1">
          <mxGeometry width="50" height="50" relative="1" as="geometry">
            <mxPoint x="710" y="500" as="sourcePoint" />
            <mxPoint x="420" y="380" as="targetPoint" />
          </mxGeometry>
        </mxCell>
        <mxCell id="kHqTodANnrio1zZ4OTn2-49" value="&lt;div style=&quot;background-color: rgb(255, 255, 255); color: rgb(8, 8, 8); font-size: 12.8pt;&quot;&gt;&lt;div style=&quot;text-align: left; font-size: 12.8pt;&quot;&gt;&lt;span style=&quot;color: rgb(0, 0, 0);&quot;&gt;AbstractPay&lt;/span&gt;&lt;/div&gt;&lt;/div&gt;" style="rounded=0;whiteSpace=wrap;html=1;fontFamily=Helvetica;fontColor=#000000;" parent="1" vertex="1">
          <mxGeometry x="1102.5" y="430" width="122.5" height="50" as="geometry" />
        </mxCell>
        <mxCell id="kHqTodANnrio1zZ4OTn2-70" value="" style="endArrow=classic;html=1;rounded=0;fontFamily=Helvetica;fontColor=#000000;entryX=0.5;entryY=1;entryDx=0;entryDy=0;" parent="1" target="kHqTodANnrio1zZ4OTn2-49" edge="1">
          <mxGeometry width="50" height="50" relative="1" as="geometry">
            <mxPoint x="1163.5" y="550" as="sourcePoint" />
            <mxPoint x="1147" y="475" as="targetPoint" />
          </mxGeometry>
        </mxCell>
        <mxCell id="kHqTodANnrio1zZ4OTn2-73" value="支付策略上下文&lt;br style=&quot;font-size: 16px;&quot;&gt;" style="text;html=1;align=center;verticalAlign=middle;resizable=0;points=[];autosize=1;strokeColor=none;fillColor=none;fontFamily=Helvetica;fontColor=#FF3333;fontSize=16;" parent="1" vertex="1">
          <mxGeometry x="230" y="440" width="140" height="30" as="geometry" />
        </mxCell>
        <mxCell id="kHqTodANnrio1zZ4OTn2-74" value="&lt;pre style=&quot;background-color:#ffffff;color:#080808;font-family:&#39;Courier New&#39;,monospace;font-size:12.8pt;&quot;&gt;&lt;br&gt;&lt;/pre&gt;" style="text;html=1;align=center;verticalAlign=middle;resizable=0;points=[];autosize=1;strokeColor=none;fillColor=none;fontSize=16;fontFamily=Helvetica;fontColor=#000000;" parent="1" vertex="1">
          <mxGeometry x="802.5" y="365" width="20" height="70" as="geometry" />
        </mxCell>
        <mxCell id="kHqTodANnrio1zZ4OTn2-75" value="&lt;font color=&quot;#ff0000&quot;&gt;支付抽象类,复用相同逻辑&lt;/font&gt;" style="text;html=1;align=center;verticalAlign=middle;resizable=0;points=[];autosize=1;strokeColor=none;fillColor=none;fontSize=16;fontFamily=Helvetica;fontColor=#000000;" parent="1" vertex="1">
          <mxGeometry x="1065" y="395" width="200" height="30" as="geometry" />
        </mxCell>
        <mxCell id="kHqTodANnrio1zZ4OTn2-76" value="&lt;font color=&quot;#ff0000&quot;&gt;支付策略接口,统一约束支付行为&lt;br&gt;&lt;/font&gt;&lt;br&gt;（支付、退款、取消交易等）" style="text;html=1;align=center;verticalAlign=middle;resizable=0;points=[];autosize=1;strokeColor=none;fillColor=none;fontSize=16;fontFamily=Helvetica;fontColor=#000000;" parent="1" vertex="1">
          <mxGeometry x="727.5" y="350" width="250" height="70" as="geometry" />
        </mxCell>
        <mxCell id="kHqTodANnrio1zZ4OTn2-77" value="spring容器，将不同支付策略进行隔离" style="text;html=1;align=center;verticalAlign=middle;resizable=0;points=[];autosize=1;strokeColor=none;fillColor=none;fontSize=16;fontFamily=Helvetica;fontColor=#000000;" parent="1" vertex="1">
          <mxGeometry x="692.5" y="810" width="290" height="30" as="geometry" />
        </mxCell>
        <mxCell id="kHqTodANnrio1zZ4OTn2-78" value="引用" style="text;html=1;align=center;verticalAlign=middle;resizable=0;points=[];autosize=1;strokeColor=none;fillColor=none;fontSize=16;fontFamily=Helvetica;fontColor=#000000;" parent="1" vertex="1">
          <mxGeometry x="646.5" y="425" width="60" height="30" as="geometry" />
        </mxCell>
        <mxCell id="kHqTodANnrio1zZ4OTn2-79" value="继承" style="text;html=1;align=center;verticalAlign=middle;resizable=0;points=[];autosize=1;strokeColor=none;fillColor=none;fontSize=16;fontFamily=Helvetica;fontColor=#000000;" parent="1" vertex="1">
          <mxGeometry x="1152.5" y="505" width="60" height="30" as="geometry" />
        </mxCell>
        <mxCell id="kHqTodANnrio1zZ4OTn2-80" value="实现" style="text;html=1;align=center;verticalAlign=middle;resizable=0;points=[];autosize=1;strokeColor=none;fillColor=none;fontSize=16;fontFamily=Helvetica;fontColor=#000000;" parent="1" vertex="1">
          <mxGeometry x="692.5" y="505" width="60" height="30" as="geometry" />
        </mxCell>
        <mxCell id="kHqTodANnrio1zZ4OTn2-84" value="阿里支付" style="text;html=1;align=center;verticalAlign=middle;resizable=0;points=[];autosize=1;strokeColor=none;fillColor=none;fontSize=16;fontFamily=Helvetica;fontColor=#000000;" parent="1" vertex="1">
          <mxGeometry x="437.5" y="720" width="90" height="30" as="geometry" />
        </mxCell>
        <mxCell id="kHqTodANnrio1zZ4OTn2-85" value="微信支付" style="text;html=1;align=center;verticalAlign=middle;resizable=0;points=[];autosize=1;strokeColor=none;fillColor=none;fontSize=16;fontFamily=Helvetica;fontColor=#000000;" parent="1" vertex="1">
          <mxGeometry x="657.5" y="720" width="90" height="30" as="geometry" />
        </mxCell>
        <mxCell id="kHqTodANnrio1zZ4OTn2-86" value="零售余额支付" style="text;html=1;align=center;verticalAlign=middle;resizable=0;points=[];autosize=1;strokeColor=none;fillColor=none;fontSize=16;fontFamily=Helvetica;fontColor=#000000;" parent="1" vertex="1">
          <mxGeometry x="860" y="720" width="120" height="30" as="geometry" />
        </mxCell>
        <mxCell id="kHqTodANnrio1zZ4OTn2-91" value="通过支付类型获取对应 bean" style="text;html=1;align=center;verticalAlign=middle;resizable=0;points=[];autosize=1;strokeColor=none;fillColor=none;fontSize=16;fontFamily=Helvetica;fontColor=#000000;" parent="1" vertex="1">
          <mxGeometry x="240" y="350" width="220" height="30" as="geometry" />
        </mxCell>
        <mxCell id="9BFdYiiqelIjF_CZysHb-1" value="其他支付渠道..." style="text;html=1;align=center;verticalAlign=middle;resizable=0;points=[];autosize=1;strokeColor=none;fillColor=none;fontSize=16;fontFamily=Helvetica;fontColor=#000000;" vertex="1" parent="1">
          <mxGeometry x="1065" y="720" width="130" height="30" as="geometry" />
        </mxCell>
      </root>
    </mxGraphModel>
  </diagram>
</mxfile>
